<?xml version="1.0" encoding="UTF-8"?> <svg xmlns="http://www.w3.org/2000/svg" width="264" height="139" viewBox="0 0 264 139" fill="none"><path d="M5.08337 71.6027L5.08337 81.4993L58.2412 81.4993C62.7431 81.4993 66.7404 80.4513 70.2334 78.3559C73.7261 76.26 76.404 73.3884 78.2668 69.74C80.207 66.0146 81.1774 61.7843 81.1774 57.0494C81.1774 52.7805 80.2461 48.9771 78.3834 45.6396C76.5202 42.302 73.8427 39.663 70.3495 37.7226C66.8568 35.7821 62.6654 34.8118 57.7755 34.8118L23.5183 34.8118C21.0346 34.8118 18.8224 34.2297 16.882 33.0654C15.0192 31.9012 13.5832 30.3876 12.5742 28.5247C11.6427 26.5843 11.1771 24.5662 11.1771 22.4705C11.1771 20.2972 11.6816 18.2791 12.6906 16.4163C13.6997 14.4758 15.1744 12.9235 17.1148 11.7592C19.0553 10.5173 21.3062 9.89635 23.8677 9.89635L76.4377 9.89635L76.4377 6.6824e-06L22.8198 1.99497e-06C18.3179 1.6014e-06 14.3206 1.00904 10.8278 3.02712C7.41256 5.04521 4.73471 7.80063 2.79426 11.2935C0.931416 14.7863 -1.63533e-06 18.7061 -2.01533e-06 23.0527C-2.38854e-06 27.3217 0.970226 31.1638 2.91069 34.579C4.92879 37.9166 7.68421 40.5556 11.1771 42.4961C14.6698 44.3589 18.706 45.2903 23.2855 45.2903L57.1933 45.2903C59.91 45.2903 62.1997 45.9113 64.0626 47.1532C66.003 48.3174 67.4779 49.9084 68.4868 51.9268C69.5733 53.867 70.1168 56.0015 70.1168 58.3301C70.1168 60.5812 69.5733 62.7156 68.4868 64.734C67.4003 66.7518 65.8866 68.4208 63.9462 69.74C62.0057 70.9822 59.6772 71.6027 56.9605 71.6027L5.08337 71.6027Z" fill="#EFEFEF"></path><path d="M162.199 0.215758L172.072 0.215758L172.072 58.1017C172.072 62.5928 171.026 66.5806 168.936 70.0652C166.845 73.5495 163.98 76.2211 160.341 78.0793C156.624 80.0149 152.404 80.983 147.68 80.983C143.422 80.983 139.627 80.0539 136.298 78.1956C132.968 76.3369 130.336 73.6658 128.4 70.181C126.464 66.6967 125.496 62.5154 125.496 57.6371L125.496 23.462C125.496 20.9842 124.915 18.7774 123.754 16.8415C122.592 14.9832 121.082 13.5507 119.224 12.5441C117.288 11.6148 115.275 11.1503 113.184 11.1503C111.016 11.1503 109.003 11.6536 107.145 12.6602C105.209 13.6669 103.66 15.1381 102.499 17.0738C101.26 19.0097 100.64 21.2552 100.64 23.8105L100.64 81.1101L90.7676 81.1101L90.7676 22.7652C90.7676 18.2741 91.7742 14.2863 93.7874 10.8019C95.8007 7.39481 98.5495 4.72337 102.034 2.78757C105.518 0.929188 109.429 8.15709e-07 113.765 1.00525e-06C118.024 1.19141e-06 121.857 0.967906 125.264 2.90372C128.593 4.91699 131.226 7.66581 133.162 11.1503C135.02 14.6347 135.949 18.6612 135.949 23.2298L135.949 57.0564C135.949 59.7665 136.569 62.0507 137.808 63.9091C138.969 65.845 140.556 67.3163 142.57 68.3228C144.506 69.4067 146.635 69.9489 148.958 69.9489C151.204 69.9489 153.333 69.4067 155.346 68.3228C157.359 67.2389 159.025 65.7288 160.341 63.793C161.58 61.8572 162.199 59.5342 162.199 56.8241L162.199 0.215758Z" fill="#EFEFEF"></path><path d="M186.745 71.6027L186.745 81.4993L239.903 81.4993C244.405 81.4993 248.403 80.4513 251.896 78.3559C255.388 76.26 258.066 73.3884 259.929 69.74C261.869 66.0146 262.84 61.7843 262.84 57.0494C262.84 52.7805 261.908 48.9771 260.045 45.6396C258.182 42.302 255.505 39.663 252.012 37.7226C248.519 35.7821 244.328 34.8118 239.438 34.8118L205.18 34.8118C202.697 34.8118 200.485 34.2297 198.544 33.0654C196.681 31.9012 195.245 30.3876 194.236 28.5247C193.305 26.5843 192.839 24.5662 192.839 22.4705C192.839 20.2972 193.344 18.2791 194.353 16.4163C195.362 14.4758 196.837 12.9235 198.777 11.7592C200.717 10.5173 202.968 9.89635 205.53 9.89635L258.1 9.89635L258.1 6.6824e-06L204.482 1.99497e-06C199.98 1.6014e-06 195.983 1.00904 192.49 3.02712C189.075 5.04521 186.397 7.80063 184.456 11.2935C182.594 14.7863 181.662 18.7061 181.662 23.0527C181.662 27.3217 182.632 31.1638 184.573 34.579C186.591 37.9166 189.346 40.5556 192.839 42.4961C196.332 44.3589 200.368 45.2903 204.948 45.2903L238.855 45.2903C241.572 45.2903 243.862 45.9113 245.725 47.1532C247.665 48.3174 249.14 49.9084 250.149 51.9267C251.235 53.867 251.779 56.0015 251.779 58.3301C251.779 60.5812 251.235 62.7156 250.149 64.7339C249.062 66.7518 247.549 68.4208 245.608 69.74C243.668 70.9822 241.339 71.6027 238.623 71.6027L186.745 71.6027Z" fill="#EFEFEF"></path><path d="M3.86814 114.238C3.86814 115.058 4.03805 115.717 4.37789 116.217C4.73772 116.717 5.21749 117.097 5.8172 117.356C6.4369 117.616 7.11657 117.826 7.85622 117.986C8.61585 118.146 9.39547 118.296 10.1951 118.436C10.9947 118.556 11.7743 118.726 12.534 118.946C13.2936 119.166 13.9733 119.475 14.573 119.875C15.1727 120.275 15.6525 120.815 16.0123 121.494C16.3721 122.174 16.552 123.054 16.552 124.133C16.552 125.393 16.2322 126.472 15.5925 127.372C14.9728 128.251 14.1132 128.921 13.0137 129.381C11.9343 129.82 10.6849 130.04 9.26554 130.04C7.84622 130.04 6.57683 129.82 5.45737 129.381C4.3579 128.941 3.44834 128.291 2.72869 127.432C2.00903 126.552 1.51927 125.462 1.25939 124.163H3.35838C3.67823 125.502 4.34791 126.532 5.36741 127.252C6.38692 127.951 7.69629 128.301 9.29552 128.301C10.9947 128.301 12.2841 127.941 13.1637 127.222C14.0432 126.502 14.483 125.552 14.483 124.373C14.483 123.493 14.3031 122.794 13.9433 122.274C13.5835 121.734 13.0937 121.324 12.474 121.045C11.8743 120.745 11.1946 120.515 10.435 120.355C9.69533 120.195 8.9257 120.045 8.12609 119.905C7.32647 119.765 6.54685 119.595 5.78721 119.395C5.04757 119.176 4.3679 118.876 3.74819 118.496C3.14848 118.116 2.66871 117.596 2.30889 116.937C1.96905 116.277 1.79913 115.417 1.79913 114.358C1.79913 113.398 2.04901 112.509 2.54877 111.689C3.06852 110.87 3.82816 110.22 4.82767 109.74C5.82719 109.24 7.0566 108.99 8.5159 108.99C9.79528 108.99 10.9547 109.2 11.9942 109.62C13.0537 110.04 13.9333 110.69 14.633 111.569C15.3326 112.429 15.7924 113.558 16.0123 114.958H13.8833C13.5835 113.478 12.9638 112.409 12.0242 111.749C11.0847 111.069 9.90523 110.73 8.48591 110.73C7.00662 110.73 5.86717 111.049 5.06756 111.689C4.26794 112.329 3.86814 113.178 3.86814 114.238ZM38.0149 129.71V109.32H40.0239V129.71H38.0149ZM39.4242 129.71V128.061H51.5384V129.71H39.4242ZM39.4242 110.969V109.32H51.5384V110.969H39.4242ZM39.4242 119.965V118.286H50.4589V119.965H39.4242ZM89.3825 114.958H87.2535C86.8337 113.618 86.0841 112.579 85.0046 111.839C83.9251 111.099 82.6857 110.73 81.2864 110.73C79.8471 110.73 78.6077 111.089 77.5682 111.809C76.5487 112.529 75.7591 113.548 75.1993 114.868C74.6396 116.167 74.3597 117.726 74.3597 119.545C74.3597 121.364 74.6296 122.924 75.1693 124.223C75.7291 125.522 76.5187 126.532 77.5382 127.252C78.5777 127.951 79.8271 128.301 81.2864 128.301C82.6457 128.301 83.8452 127.951 84.8847 127.252C85.9242 126.532 86.6938 125.502 87.1935 124.163H89.3225C88.9227 125.403 88.323 126.462 87.5234 127.342C86.7438 128.221 85.8142 128.891 84.7347 129.351C83.6552 129.81 82.4958 130.04 81.2564 130.04C79.3973 130.04 77.7981 129.62 76.4587 128.781C75.1194 127.921 74.0899 126.712 73.3702 125.153C72.6505 123.573 72.2907 121.704 72.2907 119.545C72.2907 117.366 72.6505 115.497 73.3702 113.938C74.1098 112.359 75.1493 111.139 76.4887 110.28C77.848 109.42 79.4673 108.99 81.3464 108.99C82.6058 108.99 83.7752 109.22 84.8547 109.68C85.9541 110.12 86.8937 110.79 87.6733 111.689C88.4729 112.569 89.0427 113.658 89.3825 114.958ZM126.648 121.944C126.648 123.603 126.328 125.043 125.688 126.262C125.049 127.462 124.139 128.391 122.96 129.051C121.78 129.71 120.371 130.04 118.732 130.04C117.093 130.04 115.673 129.71 114.474 129.051C113.294 128.391 112.385 127.462 111.745 126.262C111.105 125.043 110.786 123.603 110.786 121.944V109.32H112.825V121.944C112.825 123.943 113.344 125.522 114.384 126.682C115.443 127.821 116.893 128.391 118.732 128.391C120.571 128.391 122.01 127.811 123.05 126.652C124.089 125.492 124.609 123.923 124.609 121.944V109.32H126.648V121.944ZM149.157 129.71V109.32H151.166V129.71H149.157ZM156.294 120.385H150.566V119.096H156.054C157.533 119.096 158.692 118.736 159.532 118.016C160.392 117.276 160.821 116.277 160.821 115.018C160.821 113.778 160.392 112.799 159.532 112.079C158.692 111.339 157.543 110.969 156.084 110.969H150.566V109.32H156.114C158.173 109.32 159.812 109.82 161.031 110.82C162.271 111.819 162.89 113.188 162.89 114.928C162.89 116.667 162.291 118.016 161.091 118.976C159.892 119.915 158.293 120.385 156.294 120.385ZM161.811 129.71L160.462 124.133C160.242 123.194 159.952 122.484 159.592 122.004C159.232 121.504 158.752 121.175 158.153 121.015C157.553 120.855 156.803 120.775 155.904 120.775H150.956V119.425H156.234C157.533 119.425 158.583 119.545 159.382 119.785C160.182 120.005 160.811 120.425 161.271 121.045C161.751 121.664 162.131 122.544 162.411 123.683L163.94 129.71H161.811ZM185.326 129.71V109.32H187.335V129.71H185.326ZM215.77 129.71V109.32H217.809V129.71H215.77ZM208.544 111.059V109.32H225.006V111.059H208.544ZM251.672 129.71V122.004H253.711V129.71H251.672ZM246.544 109.32L251.792 118.376L252.871 120.445H252.661L253.681 118.376L258.958 109.32H261.117L253.711 122.004H251.672L244.235 109.32H246.544Z" fill="#EFEFEF"></path></svg> 